<svg width="126" height="56" viewBox="0 0 126 56" fill="none" xmlns="http://www.w3.org/2000/svg">
<g id="Group 42247">
<g id="Group 42177">
<path id="Vector" d="M0 48.6162V23.248H6.07809V33.2048H15.9313V23.248H22.0093V48.6162H15.9313V38.2784H6.07809V48.6162H0Z" fill="#EF9D52"/>
<path id="Vector_2" d="M31.9336 30.0127H26.3066V48.616H31.9336V30.0127Z" fill="#EF9D52"/>
<path id="Vector_3" d="M43.7107 48.6162C42.1199 48.6162 40.7428 48.2589 39.5557 47.5681C38.3686 46.8774 37.4664 45.9484 36.8016 44.7812C36.1605 43.614 35.8281 42.3278 35.8281 40.8986V23.248H41.9062V41.3273C41.9062 41.9228 42.1199 42.4469 42.5235 42.8756C42.9272 43.3044 43.4257 43.5188 43.9956 43.5188H50.6672V48.64H43.7107V48.6162Z" fill="#133039"/>
<path id="Vector_4" d="M56.2921 27.9168C55.3899 27.9168 54.6301 27.5834 53.9891 26.9402C53.348 26.2971 53.0156 25.511 53.0156 24.6297C53.0156 23.7007 53.348 22.9147 53.9891 22.2715C54.6301 21.6284 55.4136 21.2949 56.2921 21.2949C57.2181 21.2949 58.0016 21.6284 58.6426 22.2715C59.2837 22.9147 59.6161 23.7007 59.6161 24.6297C59.6161 25.5349 59.2837 26.2971 58.6426 26.9402C57.9778 27.5834 57.1943 27.9168 56.2921 27.9168ZM53.4905 30.013H59.1175V48.6163H53.4905V30.013Z" fill="#133039"/>
<path id="Vector_5" d="M63.25 48.6167V37.9215C63.25 36.3732 63.6299 34.9679 64.3659 33.7054C65.1019 32.443 66.1703 31.4425 67.5711 30.7041C68.9482 29.9657 70.6102 29.6084 72.5096 29.6084C74.4327 29.6084 76.071 29.9657 77.4481 30.7041C78.8014 31.4425 79.846 32.443 80.5821 33.7054C81.3181 34.9679 81.6742 36.3732 81.6742 37.9215V48.6167H76.0472V38.0645C76.0472 37.4213 75.881 36.8258 75.5724 36.278C75.2637 35.7539 74.8364 35.3014 74.2903 34.9679C73.7442 34.6344 73.1269 34.4677 72.4384 34.4677C71.7736 34.4677 71.1563 34.6344 70.5864 34.9679C70.0404 35.3014 69.5893 35.7301 69.2806 36.3018C68.972 36.8496 68.8058 37.4451 68.8058 38.0883V48.6405H63.25V48.6167Z" fill="#133039"/>
<path id="Vector_6" d="M85.8281 48.6153V22.1514H91.4076V37.0388H93.9006L98.1268 30.0119H104.371L99.3851 37.7772C100.833 38.3727 101.949 39.3017 102.757 40.5403C103.54 41.7789 103.944 43.232 103.944 44.8994V48.5914H98.3879V44.8994C98.3879 44.2324 98.2217 43.6131 97.8893 43.089C97.5569 42.565 97.1296 42.1362 96.5835 41.8028C96.0612 41.4693 95.4439 41.3026 94.7791 41.3026H91.4076V48.5914H85.8281V48.6153Z" fill="#133039"/>
<path id="Vector_7" d="M114.012 55.976V48.7347C112.635 48.4251 111.472 47.8772 110.522 47.115C109.572 46.3528 108.836 45.4 108.338 44.3042C107.839 43.2085 107.578 42.0175 107.578 40.7313V30.0361H113.181V40.5883C113.181 41.2077 113.348 41.8032 113.656 42.3748C113.965 42.9227 114.392 43.3753 114.938 43.7087C115.484 44.0422 116.102 44.209 116.79 44.209C117.455 44.209 118.072 44.0422 118.618 43.7087C119.164 43.3753 119.592 42.9227 119.901 42.3748C120.209 41.827 120.375 41.2553 120.375 40.6122V30.06H125.979V40.7551C125.979 42.0175 125.717 43.1847 125.219 44.2804C124.72 45.3761 123.984 46.3051 123.058 47.0912C122.109 47.8534 120.969 48.4013 119.616 48.7109V55.9998H114.012V55.976Z" fill="#133039"/>
<g id="Group">
<g id="Clip path group">
<mask id="mask0_3544_10099" style="mask-type:luminance" maskUnits="userSpaceOnUse" x="11" y="0" width="29" height="27">
<g id="SVGID_2_">
<path id="Vector_8" d="M25.8326 4.0732C25.8326 4.62106 25.9513 5.1451 26.1413 5.62149L20.4668 10.052C19.5409 9.17066 18.3062 8.6228 16.9292 8.6228C14.1038 8.6228 11.8008 10.9333 11.8008 13.7679C11.8008 16.6025 14.1038 18.913 16.9292 18.913C19.7545 18.913 22.0576 16.6025 22.0576 13.7679C22.0576 12.8389 21.8201 11.9814 21.3928 11.243L26.9723 6.88395C27.4234 7.36034 27.9695 7.71764 28.6105 7.93202V19.699C27.7795 19.7705 27.0435 20.104 26.4262 20.7471C25.7377 21.4617 25.3815 22.2716 25.3815 23.2244C25.3815 24.1772 25.7377 24.9871 26.4262 25.7017C27.1147 26.4163 27.9457 26.7497 28.9192 26.7497C29.8689 26.7497 30.6761 26.3924 31.3647 25.7017C32.0532 24.9871 32.4093 24.1772 32.4093 23.2244C32.4093 22.6289 32.2669 22.081 31.982 21.557L36.1606 17.3647C36.3981 17.46 36.683 17.5314 36.9679 17.5314C38.0838 17.5314 39.0098 16.6263 39.0098 15.4829C39.0098 14.3634 38.1075 13.4344 36.9679 13.4344C35.852 13.4344 34.926 14.3396 34.926 15.4829C34.926 15.7688 34.9735 16.0308 35.0922 16.2928L30.9848 20.4136C30.6999 20.1993 30.4149 20.0325 30.1063 19.9134V8.1464C32.2431 8.0273 33.9526 6.26463 33.9526 4.0732C33.9526 1.83413 32.1244 0 29.8926 0C27.6608 0 25.8326 1.81031 25.8326 4.0732Z" fill="white"/>
</g>
</mask>
<g mask="url(#mask0_3544_10099)">
<path id="Vector_9" d="M1.25781 5.14411L33.7614 -10.7676L49.5027 21.6036L17.0229 37.5153L1.25781 5.14411Z" fill="url(#paint0_linear_3544_10099)"/>
</g>
</g>
</g>
</g>
</g>
<defs>
<linearGradient id="paint0_linear_3544_10099" x1="13.4118" y1="19.2628" x2="45.2586" y2="3.75715" gradientUnits="userSpaceOnUse">
<stop stop-color="#EF9D52"/>
<stop offset="1" stop-color="#EF5959"/>
</linearGradient>
</defs>
</svg>
