<svg width="24" height="24" viewBox="0 0 24 24" fill="none" xmlns="http://www.w3.org/2000/svg">
<g id="ri:instagram-fill" clip-path="url(#clip0_3544_10205)">
<path id="Vector" d="M12.8996 -0.333984C14.2496 -0.330384 14.9347 -0.323185 15.5263 -0.306385L15.7591 -0.297985C16.0279 -0.288385 16.2931 -0.276386 16.6134 -0.261986C17.8902 -0.201988 18.7613 -0.00039205 19.5257 0.296001C20.3176 0.600794 20.9848 1.01358 21.652 1.67957C22.2621 2.27943 22.7343 3.00504 23.0355 3.80592C23.3319 4.5703 23.5335 5.44148 23.5935 6.71945C23.6079 7.03864 23.6199 7.30384 23.6295 7.57383L23.6367 7.80663C23.6547 8.39701 23.6619 9.0822 23.6643 10.4322L23.6655 11.3273V12.8993C23.6684 13.7746 23.6592 14.6498 23.6379 15.5248L23.6307 15.7576C23.6211 16.0276 23.6091 16.2928 23.5947 16.612C23.5347 17.89 23.3307 18.76 23.0355 19.5256C22.7351 20.3269 22.2629 21.0527 21.652 21.6519C21.052 22.2619 20.3264 22.734 19.5257 23.0355C18.7613 23.3319 17.8902 23.5335 16.6134 23.5935C16.3287 23.6069 16.0439 23.6189 15.7591 23.6295L15.5263 23.6367C14.9347 23.6535 14.2496 23.6619 12.8996 23.6643L12.0045 23.6655H10.4338C9.55812 23.6685 8.68248 23.6593 7.80709 23.6379L7.5743 23.6307C7.28945 23.6199 7.00466 23.6075 6.71995 23.5935C5.44321 23.5335 4.57206 23.3319 3.8065 23.0355C3.00574 22.7347 2.28043 22.2625 1.6814 21.6519C1.07069 21.0523 0.598129 20.3266 0.296676 19.5256C0.00029099 18.7612 -0.201299 17.89 -0.261296 16.612C-0.274665 16.3273 -0.286664 16.0425 -0.297294 15.7576L-0.303293 15.5248C-0.325406 14.6498 -0.335406 13.7746 -0.333292 12.8993V10.4322C-0.336641 9.5569 -0.327841 8.68164 -0.306893 7.80663L-0.298494 7.57383C-0.288894 7.30384 -0.276895 7.03864 -0.262496 6.71945C-0.202499 5.44148 -0.00090915 4.5715 0.295476 3.80592C0.596797 3.00422 1.0703 2.27838 1.6826 1.67957C2.28148 1.06935 3.00631 0.597178 3.8065 0.296001C4.57206 -0.00039205 5.44201 -0.201988 6.71995 -0.261986C7.03913 -0.276386 7.30552 -0.288385 7.5743 -0.297985L7.80709 -0.305185C8.68208 -0.326505 9.55732 -0.335706 10.4326 -0.332784L12.8996 -0.333984ZM11.6661 5.66588C10.0749 5.66588 8.54883 6.298 7.42367 7.42319C6.29851 8.54839 5.6664 10.0745 5.6664 11.6657C5.6664 13.257 6.29851 14.7831 7.42367 15.9083C8.54883 17.0335 10.0749 17.6656 11.6661 17.6656C13.2573 17.6656 14.7834 17.0335 15.9085 15.9083C17.0337 14.7831 17.6658 13.257 17.6658 11.6657C17.6658 10.0745 17.0337 8.54839 15.9085 7.42319C14.7834 6.298 13.2573 5.66588 11.6661 5.66588ZM11.6661 8.06582C12.1388 8.06574 12.6069 8.15878 13.0437 8.33962C13.4805 8.52046 13.8774 8.78556 14.2117 9.11979C14.5461 9.45401 14.8113 9.85082 14.9923 10.2876C15.1732 10.7243 15.2664 11.1924 15.2665 11.6651C15.2666 12.1379 15.1736 12.606 14.9927 13.0428C14.8119 13.4796 14.5468 13.8765 14.2126 14.2108C13.8784 14.5452 13.4816 14.8104 13.0448 14.9914C12.6081 15.1724 12.14 15.2656 11.6673 15.2657C10.7126 15.2657 9.79694 14.8864 9.12184 14.2113C8.44674 13.5361 8.06748 12.6205 8.06748 11.6657C8.06748 10.711 8.44674 9.79532 9.12184 9.12021C9.79694 8.44509 10.7126 8.06582 11.6673 8.06582M17.967 3.86592C17.5692 3.86592 17.1877 4.02395 16.9064 4.30525C16.6251 4.58654 16.467 4.96807 16.467 5.36588C16.467 5.7637 16.6251 6.14522 16.9064 6.42652C17.1877 6.70782 17.5692 6.86585 17.967 6.86585C18.3648 6.86585 18.7463 6.70782 19.0276 6.42652C19.3089 6.14522 19.4669 5.7637 19.4669 5.36588C19.4669 4.96807 19.3089 4.58654 19.0276 4.30525C18.7463 4.02395 18.3648 3.86592 17.967 3.86592Z" fill="black"/>
</g>
<defs>
<clipPath id="clip0_3544_10205">
<rect width="24" height="24" fill="white"/>
</clipPath>
</defs>
</svg>
