<svg width="1440" height="1631" viewBox="0 0 1440 1631" fill="none" xmlns="http://www.w3.org/2000/svg">
<g clip-path="url(#clip0_3781_8967)">
<rect width="1440" height="1631" fill="#F9F8F5"/>
<g opacity="0.15" clip-path="url(#clip1_3781_8967)">
<rect width="1889" height="1669" transform="translate(-448 -769)" fill="url(#paint0_linear_3781_8967)" fill-opacity="0.25"/>
<g opacity="0.9">
<path d="M1434.87 312.898C1452.12 74.201 1045.74 -149.636 527.199 -187.056C8.65752 -224.476 -425.684 -61.3087 -442.93 177.388C-460.176 416.086 -53.7957 639.923 464.745 677.343C983.286 714.763 1417.63 551.595 1434.87 312.898Z" stroke="url(#paint1_linear_3781_8967)" stroke-width="0.8" stroke-miterlimit="10"/>
<path d="M1400.45 263.157C1407.22 29.7852 1001.64 -171.305 494.575 -185.991C-12.4925 -200.678 -429.038 -23.3987 -435.805 209.973C-442.573 443.345 -36.9991 644.436 470.069 659.122C977.136 673.808 1393.68 496.529 1400.45 263.157Z" stroke="url(#paint2_linear_3781_8967)" stroke-width="0.8" stroke-miterlimit="10"/>
<path d="M476.361 641.132C971.871 633.093 1370.56 441.682 1366.85 213.604C1363.15 -14.4739 958.455 -192.851 462.945 -184.812C-32.5653 -176.774 -431.253 14.6372 -427.548 242.715C-423.843 470.794 -19.1497 649.171 476.361 641.132Z" stroke="url(#paint3_linear_3781_8967)" stroke-width="0.8" stroke-miterlimit="10"/>
<path d="M481.684 622.822C965.691 592.05 1346.56 386.503 1332.38 163.719C1318.2 -59.0647 914.337 -214.721 430.33 -183.949C-53.6772 -153.177 -434.547 52.3705 -420.366 275.154C-406.185 497.938 -2.32316 653.594 481.684 622.822Z" stroke="url(#paint4_linear_3781_8967)" stroke-width="0.8" stroke-miterlimit="10"/>
<path d="M486.404 605.21C958.964 551.735 1322.08 332.1 1297.44 114.642C1272.8 -102.816 869.745 -235.75 397.185 -182.275C-75.3751 -128.799 -438.489 90.8351 -413.851 308.293C-389.214 525.751 13.844 658.685 486.404 605.21Z" stroke="url(#paint5_linear_3781_8967)" stroke-width="0.8" stroke-miterlimit="10"/>
<path d="M491.698 587.297C952.726 511.103 1298 277.308 1262.88 65.1029C1227.77 -147.102 825.569 -257.361 364.542 -181.167C-96.4859 -104.973 -441.758 128.822 -406.644 341.027C-371.531 553.232 30.6708 663.491 491.698 587.297Z" stroke="url(#paint6_linear_3781_8967)" stroke-width="0.8" stroke-miterlimit="10"/>
<path d="M497.159 568.929C946.708 469.984 1274.19 222.082 1228.6 15.2244C1183.02 -191.633 781.635 -279.114 332.086 -180.169C-117.463 -81.2244 -444.942 166.678 -399.358 373.536C-353.774 580.394 47.6099 667.874 497.159 568.929Z" stroke="url(#paint7_linear_3781_8967)" stroke-width="0.8" stroke-miterlimit="10"/>
<path d="M502.186 551.335C940.198 429.689 1249.83 167.648 1193.78 -33.9515C1137.72 -235.551 737.202 -300.367 299.191 -178.721C-138.82 -57.076 -448.456 204.966 -392.4 406.565C-336.345 608.165 64.1754 672.98 502.186 551.335Z" stroke="url(#paint8_linear_3781_8967)" stroke-width="0.8" stroke-miterlimit="10"/>
<path d="M508.306 531.666C934.774 387.235 1226.55 111.053 1160 -85.2036C1093.46 -281.461 693.791 -323.473 267.323 -179.042C-159.145 -34.6117 -450.92 241.57 -384.374 437.827C-317.829 634.084 81.8379 676.097 508.306 531.666Z" stroke="url(#paint9_linear_3781_8967)" stroke-width="0.8" stroke-miterlimit="10"/>
<path d="M513.226 514.226C928.225 347.077 1202.22 56.7631 1125.21 -134.208C1048.2 -325.179 649.348 -344.49 234.35 -177.341C-180.648 -10.1922 -454.642 280.121 -377.632 471.092C-300.623 662.063 98.2283 681.375 513.226 514.226Z" stroke="url(#paint10_linear_3781_8967)" stroke-width="0.8" stroke-miterlimit="10"/>
<path d="M518.212 496.959C921.704 307.117 1177.88 2.66629 1090.39 -183.052C1002.91 -368.77 604.895 -365.428 201.403 -175.587C-202.089 14.2546 -458.264 318.705 -370.779 504.424C-283.295 690.142 114.72 686.8 518.212 496.959Z" stroke="url(#paint11_linear_3781_8967)" stroke-width="0.8" stroke-miterlimit="10"/>
<path d="M523.937 477.854C915.9 265.252 1154.23 -53.3487 1056.25 -233.76C958.279 -414.172 561.107 -388.075 169.145 -175.473C-222.818 37.1292 -461.143 355.73 -363.17 536.141C-265.197 716.553 131.975 690.457 523.937 477.854Z" stroke="url(#paint12_linear_3781_8967)" stroke-width="0.8" stroke-miterlimit="10"/>
<path d="M528.949 460.342C909.424 225.038 1129.98 -107.648 1021.57 -282.732C913.156 -457.817 516.835 -408.999 136.36 -173.694C-244.115 61.6098 -464.667 394.295 -356.256 569.38C-247.846 744.464 148.474 695.646 528.949 460.342Z" stroke="url(#paint13_linear_3781_8967)" stroke-width="0.8" stroke-miterlimit="10"/>
<path d="M513.111 473.276C882.405 216.725 1085.97 -128.998 967.783 -298.917C849.597 -468.837 454.417 -398.609 85.1226 -142.058C-284.171 114.493 -487.734 460.215 -369.549 630.135C-251.363 800.054 143.817 729.827 513.111 473.276Z" stroke="url(#paint14_linear_3781_8967)" stroke-width="0.798919" stroke-miterlimit="10"/>
<path d="M539.915 422.911C897.374 142.09 1082.26 -218.914 952.878 -383.413C823.492 -547.912 428.825 -453.614 71.3662 -172.793C-286.093 108.029 -470.983 469.032 -341.597 633.532C-212.211 798.031 182.456 703.733 539.915 422.911Z" stroke="url(#paint15_linear_3781_8967)" stroke-width="0.8" stroke-miterlimit="10"/>
<path d="M545.182 405.092C891.164 101.535 1058.29 -273.585 918.46 -432.763C778.634 -591.94 384.808 -474.898 38.8264 -171.342C-307.155 132.215 -474.277 507.335 -334.451 666.513C-194.624 825.691 199.201 708.648 545.182 405.092Z" stroke="url(#paint16_linear_3781_8967)" stroke-width="0.8" stroke-miterlimit="10"/>
<path d="M550.52 386.316C884.948 60.0427 1034.22 -329.183 883.934 -483.043C733.646 -636.904 340.706 -497.135 6.27753 -170.861C-328.151 155.412 -477.425 544.636 -327.137 698.497C-176.848 852.357 216.092 712.589 550.52 386.316Z" stroke="url(#paint17_linear_3781_8967)" stroke-width="0.8" stroke-miterlimit="10"/>
<path d="M555.716 368.104C878.648 19.0892 1010.1 -384.292 849.327 -532.874C688.553 -681.456 296.43 -518.974 -26.5019 -169.959C-349.434 179.056 -480.888 582.438 -320.113 731.02C-159.339 879.602 232.784 717.119 555.716 368.104Z" stroke="url(#paint18_linear_3781_8967)" stroke-width="0.8" stroke-miterlimit="10"/>
<path d="M560.98 350.349C872.423 -21.382 986.106 -438.872 814.9 -582.14C643.693 -725.408 252.429 -540.203 -59.0143 -168.472C-370.457 203.259 -484.141 620.748 -312.935 764.017C-141.728 907.285 249.537 722.08 560.98 350.349Z" stroke="url(#paint19_linear_3781_8967)" stroke-width="0.8" stroke-miterlimit="10"/>
<path d="M566.13 331.813C866.045 -62.6458 961.898 -494.262 780.222 -632.229C598.545 -770.196 208.138 -562.269 -91.7774 -167.81C-391.693 226.648 -487.545 658.264 -305.869 796.231C-124.192 934.198 266.214 726.271 566.13 331.813Z" stroke="url(#paint20_linear_3781_8967)" stroke-width="0.8" stroke-miterlimit="10"/>
<path d="M571.439 313.509C859.826 -103.658 937.847 -549.387 745.704 -682.056C553.562 -814.725 164.015 -584.094 -124.372 -166.927C-412.759 250.24 -490.78 695.97 -298.638 828.639C-106.495 961.308 283.051 730.677 571.439 313.509Z" stroke="url(#paint21_linear_3781_8967)" stroke-width="0.8" stroke-miterlimit="10"/>
<path d="M577.088 296.896C854.046 -142.983 914.312 -602.87 711.696 -730.289C509.079 -857.708 120.307 -604.409 -156.651 -164.53C-433.61 275.35 -493.876 735.236 -291.259 862.656C-88.6424 990.075 300.13 736.776 577.088 296.896Z" stroke="url(#paint22_linear_3781_8967)" stroke-width="0.8" stroke-miterlimit="10"/>
</g>
</g>
<g filter="url(#filter0_f_3781_8967)">
<g filter="url(#filter1_bdf_3781_8967)">
<rect x="1285.24" y="156.702" width="279.881" height="167.406" rx="25" transform="rotate(-14.5049 1285.24 156.702)" fill="url(#paint23_linear_3781_8967)" fill-opacity="0.33" shape-rendering="crispEdges"/>
<rect x="1285.24" y="156.702" width="279.881" height="167.406" rx="25" transform="rotate(-14.5049 1285.24 156.702)" stroke="url(#paint24_linear_3781_8967)" shape-rendering="crispEdges"/>
</g>
<g filter="url(#filter2_i_3781_8967)">
<mask id="mask0_3781_8967" style="mask-type:luminance" maskUnits="userSpaceOnUse" x="1386" y="139" width="116" height="113">
<path d="M1434.85 161.077C1435.44 163.326 1436.48 165.352 1437.77 167.106L1419.06 191.353C1414.32 188.719 1408.66 187.782 1403 189.246C1391.4 192.249 1384.39 204.184 1387.4 215.822C1390.41 227.459 1402.33 234.498 1413.93 231.494C1425.54 228.491 1432.55 216.556 1429.54 204.918C1428.56 201.104 1426.67 197.836 1424.13 195.259L1442.42 171.431C1444.78 172.907 1447.41 173.794 1450.27 173.992L1462.77 222.304C1459.43 223.481 1456.76 225.632 1454.91 228.929C1452.84 232.595 1452.23 236.299 1453.24 240.21C1454.26 244.122 1456.58 247.069 1460.17 249.271C1463.76 251.473 1467.52 251.959 1471.52 250.924C1475.43 249.914 1478.36 247.589 1480.46 244.021C1482.53 240.355 1483.13 236.652 1482.12 232.74C1481.49 230.295 1480.32 228.197 1478.59 226.348L1491.31 204.694C1492.39 204.833 1493.63 204.823 1494.8 204.52C1499.39 203.334 1502.23 198.634 1501.02 193.939C1499.83 189.343 1495.14 186.488 1490.45 187.699C1485.87 188.886 1483.02 193.586 1484.24 198.28C1484.54 199.454 1485.02 200.479 1485.78 201.429L1473.28 222.714C1471.88 222.137 1470.54 221.755 1469.14 221.594L1456.64 173.282C1465.3 170.522 1470.45 161.468 1468.12 152.47C1465.74 143.278 1456.28 137.691 1447.11 140.063C1438.04 142.41 1432.45 151.786 1434.85 161.077Z" fill="white"/>
</mask>
<g mask="url(#mask0_3781_8967)">
<path d="M1335.02 191.601L1451.58 91.7459L1550.74 207.893L1434.18 307.748L1335.02 191.601Z" fill="url(#paint25_linear_3781_8967)"/>
</g>
</g>
</g>
<g filter="url(#filter3_f_3781_8967)">
<g filter="url(#filter4_bdd_3781_8967)">
<rect x="-181.43" y="141.247" width="328.454" height="192.319" rx="20" transform="rotate(20.4063 -181.43 141.247)" fill="url(#paint26_radial_3781_8967)" fill-opacity="0.3" shape-rendering="crispEdges"/>
<rect x="-181.135" y="141.89" width="327.454" height="191.319" rx="19.5" transform="rotate(20.4063 -181.135 141.89)" stroke="url(#paint27_linear_3781_8967)" shape-rendering="crispEdges"/>
</g>
<g filter="url(#filter5_i_3781_8967)">
<mask id="mask1_3781_8967" style="mask-type:luminance" maskUnits="userSpaceOnUse" x="-125" y="234" width="127" height="124">
<path d="M-41.0222 247.676C-41.9506 250.171 -42.2831 252.765 -42.2017 255.266L-76.3705 265.527C-79.2095 259.901 -84.0578 255.257 -90.501 252.86C-103.721 247.942 -118.411 254.457 -123.215 267.368C-128.018 280.279 -121.157 294.812 -107.938 299.73C-94.7182 304.648 -80.0274 298.133 -75.2242 285.222C-73.65 280.99 -73.3079 276.671 -74.0562 272.564L-40.5639 262.421C-39.2605 265.376 -37.3108 267.954 -34.6747 270.046L-54.614 323.644C-58.6232 322.523 -62.6321 322.761 -66.6102 324.615C-71.0427 326.672 -74.0813 329.741 -75.6959 334.081C-77.3104 338.421 -77.0164 342.729 -75.0057 347.183C-72.995 351.636 -69.672 354.602 -65.1173 356.296C-60.6738 357.949 -56.2913 357.727 -51.8992 355.779C-47.4668 353.722 -44.4281 350.653 -42.8135 346.314C-41.8045 343.601 -41.5427 340.858 -41.9877 337.975L-15.3322 326.153C-14.3828 327 -13.1708 327.822 -11.8377 328.318C-6.61655 330.26 -0.750296 327.749 1.18713 322.541C3.08419 317.442 0.436981 311.64 -4.89529 309.656C-10.1165 307.714 -15.9827 310.225 -17.9202 315.433C-18.4045 316.735 -18.6263 318.011 -18.5149 319.411L-44.716 331.031C-45.6858 329.559 -46.7364 328.304 -47.9787 327.224L-28.0394 273.626C-17.8396 276.803 -6.8543 271.75 -3.14091 261.769C0.653217 251.57 -4.79268 240.033 -15.235 236.149C-25.5663 232.305 -37.1877 237.369 -41.0222 247.676Z" fill="white"/>
</mask>
<g mask="url(#mask1_3781_8967)">
<path d="M-157.816 209.785L21.1161 193.845L40.0257 368.734L-138.906 384.674L-157.816 209.785Z" fill="url(#paint28_linear_3781_8967)"/>
</g>
</g>
</g>
</g>
<defs>
<filter id="filter0_f_3781_8967" x="1278.4" y="79.7605" width="326.573" height="245.853" filterUnits="userSpaceOnUse" color-interpolation-filters="sRGB">
<feFlood flood-opacity="0" result="BackgroundImageFix"/>
<feBlend mode="normal" in="SourceGraphic" in2="BackgroundImageFix" result="shape"/>
<feGaussianBlur stdDeviation="5.9" result="effect1_foregroundBlur_3781_8967"/>
</filter>
<filter id="filter1_bdf_3781_8967" x="1255.2" y="56.5605" width="372.973" height="292.253" filterUnits="userSpaceOnUse" color-interpolation-filters="sRGB">
<feFlood flood-opacity="0" result="BackgroundImageFix"/>
<feGaussianBlur in="BackgroundImageFix" stdDeviation="17.5"/>
<feComposite in2="SourceAlpha" operator="in" result="effect1_backgroundBlur_3781_8967"/>
<feColorMatrix in="SourceAlpha" type="matrix" values="0 0 0 0 0 0 0 0 0 0 0 0 0 0 0 0 0 0 127 0" result="hardAlpha"/>
<feOffset dy="4"/>
<feGaussianBlur stdDeviation="2"/>
<feComposite in2="hardAlpha" operator="out"/>
<feColorMatrix type="matrix" values="0 0 0 0 0 0 0 0 0 0 0 0 0 0 0 0 0 0 0.25 0"/>
<feBlend mode="normal" in2="effect1_backgroundBlur_3781_8967" result="effect2_dropShadow_3781_8967"/>
<feBlend mode="normal" in="SourceGraphic" in2="effect2_dropShadow_3781_8967" result="shape"/>
<feGaussianBlur stdDeviation="0.5" result="effect3_foregroundBlur_3781_8967"/>
</filter>
<filter id="filter2_i_3781_8967" x="1386.7" y="139.518" width="114.6" height="115.927" filterUnits="userSpaceOnUse" color-interpolation-filters="sRGB">
<feFlood flood-opacity="0" result="BackgroundImageFix"/>
<feBlend mode="normal" in="SourceGraphic" in2="BackgroundImageFix" result="shape"/>
<feColorMatrix in="SourceAlpha" type="matrix" values="0 0 0 0 0 0 0 0 0 0 0 0 0 0 0 0 0 0 127 0" result="hardAlpha"/>
<feOffset dy="4"/>
<feGaussianBlur stdDeviation="5"/>
<feComposite in2="hardAlpha" operator="arithmetic" k2="-1" k3="1"/>
<feColorMatrix type="matrix" values="0 0 0 0 0.72549 0 0 0 0 0.305882 0 0 0 0 0.0823529 0 0 0 1 0"/>
<feBlend mode="normal" in2="shape" result="effect1_innerShadow_3781_8967"/>
</filter>
<filter id="filter3_f_3781_8967" x="-254.573" y="135.16" width="387.073" height="306.948" filterUnits="userSpaceOnUse" color-interpolation-filters="sRGB">
<feFlood flood-opacity="0" result="BackgroundImageFix"/>
<feBlend mode="normal" in="SourceGraphic" in2="BackgroundImageFix" result="shape"/>
<feGaussianBlur stdDeviation="5.9" result="effect1_foregroundBlur_3781_8967"/>
</filter>
<filter id="filter4_bdd_3781_8967" x="-264.773" y="124.96" width="407.473" height="327.348" filterUnits="userSpaceOnUse" color-interpolation-filters="sRGB">
<feFlood flood-opacity="0" result="BackgroundImageFix"/>
<feGaussianBlur in="BackgroundImageFix" stdDeviation="11"/>
<feComposite in2="SourceAlpha" operator="in" result="effect1_backgroundBlur_3781_8967"/>
<feColorMatrix in="SourceAlpha" type="matrix" values="0 0 0 0 0 0 0 0 0 0 0 0 0 0 0 0 0 0 127 0" result="hardAlpha"/>
<feMorphology radius="14" operator="erode" in="SourceAlpha" result="effect2_dropShadow_3781_8967"/>
<feOffset/>
<feGaussianBlur stdDeviation="12"/>
<feComposite in2="hardAlpha" operator="out"/>
<feColorMatrix type="matrix" values="0 0 0 0 0 0 0 0 0 0 0 0 0 0 0 0 0 0 0.25 0"/>
<feBlend mode="normal" in2="effect1_backgroundBlur_3781_8967" result="effect2_dropShadow_3781_8967"/>
<feColorMatrix in="SourceAlpha" type="matrix" values="0 0 0 0 0 0 0 0 0 0 0 0 0 0 0 0 0 0 127 0" result="hardAlpha"/>
<feOffset dy="4"/>
<feGaussianBlur stdDeviation="2"/>
<feComposite in2="hardAlpha" operator="out"/>
<feColorMatrix type="matrix" values="0 0 0 0 0 0 0 0 0 0 0 0 0 0 0 0 0 0 0.25 0"/>
<feBlend mode="normal" in2="effect2_dropShadow_3781_8967" result="effect3_dropShadow_3781_8967"/>
<feBlend mode="normal" in="SourceGraphic" in2="effect3_dropShadow_3781_8967" result="shape"/>
</filter>
<filter id="filter5_i_3781_8967" x="-124.748" y="234.865" width="126.547" height="126.537" filterUnits="userSpaceOnUse" color-interpolation-filters="sRGB">
<feFlood flood-opacity="0" result="BackgroundImageFix"/>
<feBlend mode="normal" in="SourceGraphic" in2="BackgroundImageFix" result="shape"/>
<feColorMatrix in="SourceAlpha" type="matrix" values="0 0 0 0 0 0 0 0 0 0 0 0 0 0 0 0 0 0 127 0" result="hardAlpha"/>
<feOffset dy="4"/>
<feGaussianBlur stdDeviation="5"/>
<feComposite in2="hardAlpha" operator="arithmetic" k2="-1" k3="1"/>
<feColorMatrix type="matrix" values="0 0 0 0 0.72549 0 0 0 0 0.305882 0 0 0 0 0.0823529 0 0 0 1 0"/>
<feBlend mode="normal" in2="shape" result="effect1_innerShadow_3781_8967"/>
</filter>
<linearGradient id="paint0_linear_3781_8967" x1="607.5" y1="-240.5" x2="1114.5" y2="1473.5" gradientUnits="userSpaceOnUse">
<stop stop-color="#F3A960"/>
<stop offset="1" stop-color="#F3A960" stop-opacity="0"/>
</linearGradient>
<linearGradient id="paint1_linear_3781_8967" x1="-442.93" y1="177.388" x2="1434.86" y2="313.06" gradientUnits="userSpaceOnUse">
<stop stop-color="#254254"/>
<stop offset="1" stop-color="#254254" stop-opacity="0.7"/>
</linearGradient>
<linearGradient id="paint2_linear_3781_8967" x1="-435.805" y1="209.973" x2="1400.45" y2="263.221" gradientUnits="userSpaceOnUse">
<stop stop-color="#254254"/>
<stop offset="1" stop-color="#254254" stop-opacity="0.7"/>
</linearGradient>
<linearGradient id="paint3_linear_3781_8967" x1="462.945" y1="-184.812" x2="476.345" y2="641.132" gradientUnits="userSpaceOnUse">
<stop stop-color="#254254"/>
<stop offset="1" stop-color="#254254" stop-opacity="0.7"/>
</linearGradient>
<linearGradient id="paint4_linear_3781_8967" x1="430.33" y1="-183.949" x2="481.622" y2="622.826" gradientUnits="userSpaceOnUse">
<stop stop-color="#254254"/>
<stop offset="1" stop-color="#254254" stop-opacity="0.7"/>
</linearGradient>
<linearGradient id="paint5_linear_3781_8967" x1="397.185" y1="-182.275" x2="486.299" y2="605.222" gradientUnits="userSpaceOnUse">
<stop stop-color="#254254"/>
<stop offset="1" stop-color="#254254" stop-opacity="0.7"/>
</linearGradient>
<linearGradient id="paint6_linear_3781_8967" x1="364.542" y1="-181.167" x2="491.55" y2="587.321" gradientUnits="userSpaceOnUse">
<stop stop-color="#254254"/>
<stop offset="1" stop-color="#254254" stop-opacity="0.7"/>
</linearGradient>
<linearGradient id="paint7_linear_3781_8967" x1="332.086" y1="-180.169" x2="496.97" y2="568.97" gradientUnits="userSpaceOnUse">
<stop stop-color="#254254"/>
<stop offset="1" stop-color="#254254" stop-opacity="0.7"/>
</linearGradient>
<linearGradient id="paint8_linear_3781_8967" x1="299.191" y1="-178.721" x2="501.961" y2="551.397" gradientUnits="userSpaceOnUse">
<stop stop-color="#254254"/>
<stop offset="1" stop-color="#254254" stop-opacity="0.7"/>
</linearGradient>
<linearGradient id="paint9_linear_3781_8967" x1="267.323" y1="-179.042" x2="508.047" y2="531.754" gradientUnits="userSpaceOnUse">
<stop stop-color="#254254"/>
<stop offset="1" stop-color="#254254" stop-opacity="0.7"/>
</linearGradient>
<linearGradient id="paint10_linear_3781_8967" x1="234.35" y1="-177.341" x2="512.94" y2="514.341" gradientUnits="userSpaceOnUse">
<stop stop-color="#254254"/>
<stop offset="1" stop-color="#254254" stop-opacity="0.7"/>
</linearGradient>
<linearGradient id="paint11_linear_3781_8967" x1="201.403" y1="-175.586" x2="517.901" y2="497.105" gradientUnits="userSpaceOnUse">
<stop stop-color="#254254"/>
<stop offset="1" stop-color="#254254" stop-opacity="0.7"/>
</linearGradient>
<linearGradient id="paint12_linear_3781_8967" x1="169.145" y1="-175.473" x2="523.609" y2="478.032" gradientUnits="userSpaceOnUse">
<stop stop-color="#254254"/>
<stop offset="1" stop-color="#254254" stop-opacity="0.7"/>
</linearGradient>
<linearGradient id="paint13_linear_3781_8967" x1="136.36" y1="-173.695" x2="528.609" y2="460.552" gradientUnits="userSpaceOnUse">
<stop stop-color="#254254"/>
<stop offset="1" stop-color="#254254" stop-opacity="0.7"/>
</linearGradient>
<linearGradient id="paint14_linear_3781_8967" x1="85.123" y1="-142.058" x2="512.766" y2="473.516" gradientUnits="userSpaceOnUse">
<stop stop-color="#254254"/>
<stop offset="1" stop-color="#254254" stop-opacity="0.7"/>
</linearGradient>
<linearGradient id="paint15_linear_3781_8967" x1="71.3662" y1="-172.793" x2="539.568" y2="423.184" gradientUnits="userSpaceOnUse">
<stop stop-color="#254254"/>
<stop offset="1" stop-color="#254254" stop-opacity="0.7"/>
</linearGradient>
<linearGradient id="paint16_linear_3781_8967" x1="38.8264" y1="-171.342" x2="544.84" y2="405.392" gradientUnits="userSpaceOnUse">
<stop stop-color="#254254"/>
<stop offset="1" stop-color="#254254" stop-opacity="0.7"/>
</linearGradient>
<linearGradient id="paint17_linear_3781_8967" x1="6.27779" y1="-170.862" x2="550.186" y2="386.641" gradientUnits="userSpaceOnUse">
<stop stop-color="#254254"/>
<stop offset="1" stop-color="#254254" stop-opacity="0.7"/>
</linearGradient>
<linearGradient id="paint18_linear_3781_8967" x1="-26.5022" y1="-169.959" x2="555.394" y2="368.452" gradientUnits="userSpaceOnUse">
<stop stop-color="#254254"/>
<stop offset="1" stop-color="#254254" stop-opacity="0.7"/>
</linearGradient>
<linearGradient id="paint19_linear_3781_8967" x1="-59.0143" y1="-168.472" x2="560.674" y2="350.714" gradientUnits="userSpaceOnUse">
<stop stop-color="#254254"/>
<stop offset="1" stop-color="#254254" stop-opacity="0.7"/>
</linearGradient>
<linearGradient id="paint20_linear_3781_8967" x1="-91.7772" y1="-167.81" x2="565.842" y2="332.192" gradientUnits="userSpaceOnUse">
<stop stop-color="#254254"/>
<stop offset="1" stop-color="#254254" stop-opacity="0.7"/>
</linearGradient>
<linearGradient id="paint21_linear_3781_8967" x1="-124.372" y1="-166.927" x2="571.169" y2="313.9" gradientUnits="userSpaceOnUse">
<stop stop-color="#254254"/>
<stop offset="1" stop-color="#254254" stop-opacity="0.7"/>
</linearGradient>
<linearGradient id="paint22_linear_3781_8967" x1="-156.651" y1="-164.53" x2="576.839" y2="297.293" gradientUnits="userSpaceOnUse">
<stop stop-color="#254254"/>
<stop offset="1" stop-color="#254254" stop-opacity="0.7"/>
</linearGradient>
<linearGradient id="paint23_linear_3781_8967" x1="1397.33" y1="227.122" x2="1557.91" y2="318.492" gradientUnits="userSpaceOnUse">
<stop stop-color="white"/>
<stop offset="1" stop-color="#625C5C"/>
</linearGradient>
<linearGradient id="paint24_linear_3781_8967" x1="1289.19" y1="161.341" x2="1559.05" y2="333.624" gradientUnits="userSpaceOnUse">
<stop stop-color="#D23A0A" stop-opacity="0.47"/>
<stop offset="1" stop-color="#CE9911"/>
</linearGradient>
<linearGradient id="paint25_linear_3781_8967" x1="1399.92" y1="236.662" x2="1514.24" y2="139.076" gradientUnits="userSpaceOnUse">
<stop stop-color="#EF9D52"/>
<stop offset="1" stop-color="#EF5959"/>
</linearGradient>
<radialGradient id="paint26_radial_3781_8967" cx="0" cy="0" r="1" gradientUnits="userSpaceOnUse" gradientTransform="translate(-181.43 141.247) rotate(30.5025) scale(366.713 602.669)">
<stop offset="0.0706466" stop-color="#286F8C"/>
<stop offset="1" stop-color="#286F8C"/>
</radialGradient>
<linearGradient id="paint27_linear_3781_8967" x1="-181.43" y1="152.419" x2="142.812" y2="340.816" gradientUnits="userSpaceOnUse">
<stop stop-color="#070429" stop-opacity="0.73"/>
<stop offset="0.567838" stop-color="#F4F3F8" stop-opacity="0.99"/>
<stop offset="1" stop-color="white"/>
</linearGradient>
<linearGradient id="paint28_linear_3781_8967" x1="-124.924" y1="295.235" x2="49.9587" y2="276.344" gradientUnits="userSpaceOnUse">
<stop stop-color="#EF9D52"/>
<stop offset="1" stop-color="#EF5959"/>
</linearGradient>
<clipPath id="clip0_3781_8967">
<rect width="1440" height="1631" fill="white"/>
</clipPath>
<clipPath id="clip1_3781_8967">
<rect width="1889" height="1669" fill="white" transform="translate(-448 -769)"/>
</clipPath>
</defs>
</svg>
